<svg width="18" height="24" viewBox="0 0 18 24" fill="none" xmlns="http://www.w3.org/2000/svg">
<path fill-rule="evenodd" clip-rule="evenodd" d="M11.0793 22.6953C13.7375 19.5723 18 13.989 18 10.2993C18 4.93792 13.9706 0.591675 9 0.591675C4.02944 0.591675 0 4.93792 0 10.2993C0 13.989 4.26254 19.5723 6.92068 22.6953C8.02444 23.9921 9.97556 23.9921 11.0793 22.6953ZM9 12.1631C10.7752 12.1631 12.2143 10.7241 12.2143 8.94886C12.2143 7.17366 10.7752 5.73457 9 5.73457C7.2248 5.73457 5.78571 7.17366 5.78571 8.94886C5.78571 10.7241 7.2248 12.1631 9 12.1631Z" fill="#294594"/>
</svg>
